$MeshFormat
2.2 0 8
$EndMeshFormat
$Nodes
20
1 0 0 0
2 1 0 0
3 0 1 0
4 0.3333333333333333 0 0
5 0.6666666666666666 0 0
6 0.6666666666666667 0.3333333333333333 0
7 0.3333333333333334 0.6666666666666666 0
8 0 0.6666666666666667 0
9 0 0.3333333333333334 0
10 0.3333333333333334 0.3333333333333334 0
11 0 0 1
13 0.6666666666666667 0 0.3333333333333333
14 0.3333333333333334 0 0.6666666666666666
15 0 0 0.6666666666666667
16 0 0 0.3333333333333334
17 0.3333333333333334 0 0.3333333333333334
24 0 0.3333333333333333 0.6666666666666667
25 0 0.6666666666666666 0.3333333333333334
26 0 0.3333333333333334 0.3333333333333334
35 0.3333333333333334 0.3333333333333333 0.3333333333333334
$EndNodes
$Elements
4
1 21 4 0 5 1 2 1 2 3 4 5 6 7 8 9 10
2 21 4 0 14 1 2 1 2 11 4 5 13 14 15 16 17
4 21 4 0 26 1 2 1 11 3 16 15 24 25 8 9 26
7 29 4 0 1 1 2 1 2 3 11 4 5 6 7 8 9 15 16 24 25 14 13 10 17 26 35
$EndElements
