$MeshFormat
2.2 0 8
$EndMeshFormat
$Nodes
20
1 0 0 0
2 1 0 0
3 0 1 0
4 0 0 1
5 0.3333333333333333 0 0
6 0.6666666666666666 0 0
7 0.6666666666666667 0.3333333333333333 0
8 0.3333333333333334 0.6666666666666666 0
9 0 0.6666666666666667 0
10 0 0.3333333333333334 0
11 0 0 0.6666666666666667
12 0 0 0.3333333333333334
13 0 0.3333333333333333 0.6666666666666667
14 0 0.6666666666666666 0.3333333333333334
15 0.3333333333333334 0 0.6666666666666666
16 0.6666666666666667 0 0.3333333333333333
17 0.3333333333333334 0.3333333333333334 0
18 0.3333333333333334 0 0.3333333333333334
19 0 0.3333333333333334 0.3333333333333334
20 0.3333333333333334 0.3333333333333333 0.3333333333333334
$EndNodes
$Elements
4
1 21 4 0 6 1 2 1 2 3 5 6 7 8 9 10 17
2 21 4 0 14 1 2 1 2 4 5 6 16 15 11 12 18
3 21 4 0 19 1 2 1 4 3 12 11 13 14 8 9 19
5 29 4 0 1 1 2 1 2 3 4 5 6 7 8 9 10 11 12 13 14 15 16 17 18 19 20
$EndElements
