$MeshFormat
2.2 0 8
$EndMeshFormat
$Nodes
40
1 0 0 0
2 1 0 0
3 0 1 0
4 0.3333333333333333 0 0
5 0.6666666666666666 0 0
6 0.6666666666666667 0.3333333333333333 0
7 0.3333333333333334 0.6666666666666666 0
8 0 0.6666666666666667 0
9 0 0.3333333333333334 0
10 0.3333333333333334 0.3333333333333334 0
11 0 0 1
12 1 0 1
13 0.6666666666666667 0 0.3333333333333333
14 0.3333333333333334 0 0.6666666666666666
15 0 0 0.6666666666666667
16 0 0 0.3333333333333334
17 0.3333333333333334 0 0.3333333333333334
18 1 0 0.3333333333333333
19 1 0 0.6666666666666666
20 0.6666666666666667 0 1
21 0.3333333333333334 0 1
22 0.6666666666666667 0 0.6666666666666666
23 0 1 1
24 0 0.3333333333333333 0.6666666666666667
25 0 0.6666666666666666 0.3333333333333334
26 0 0.3333333333333334 0.3333333333333334
27 0 0.3333333333333333 1
28 0 0.6666666666666666 1
29 0 1 0.6666666666666667
30 0 1 0.3333333333333334
31 0 0.6666666666666665 0.6666666666666667
32 0.6666666666666667 0.3333333333333333 1
33 0.3333333333333334 0.6666666666666666 1
34 0.3333333333333334 0.3333333333333333 0.9999999999999998
35 0.3333333333333334 0.3333333333333333 0.3333333333333334
36 0.6666666666666667 0.3333333333333333 0.6666666666666667
37 0.3333333333333334 0.6666666666666666 0.3333333333333334
38 0.6666666666666667 0.3333333333333333 0.3333333333333334
39 0.3333333333333334 0.3333333333333333 0.6666666666666667
40 0.3333333333333334 0.6666666666666666 0.6666666666666667
$EndNodes
$Elements
9
1 21 4 0 5 1 2 1 2 3 4 5 6 7 8 9 10
2 21 4 0 14 1 2 1 2 11 4 5 13 14 15 16 17
3 21 4 0 14 1 2 11 2 12 14 13 18 19 20 21 22
4 21 4 0 26 1 2 1 11 3 16 15 24 25 8 9 26
5 21 4 0 26 1 2 11 23 3 27 28 29 30 25 24 31
6 21 4 0 27 1 2 11 12 23 21 20 32 33 28 27 34
7 29 4 0 1 1 2 1 2 3 11 4 5 6 7 8 9 15 16 24 25 14 13 10 17 26 35
8 29 4 0 1 1 2 2 3 11 12 6 7 25 24 14 13 19 18 20 21 36 37 35 38 22 39
9 29 4 0 1 1 2 11 12 3 23 21 20 36 37 25 24 28 27 29 30 33 32 39 34 31 40
$EndElements
